<?xml version="1.0" encoding="UTF-8" standalone="no"?>
<!-- Created with Inkscape (http://www.inkscape.org/) -->

<svg
   xmlns:dc="http://purl.org/dc/elements/1.1/"
   xmlns:cc="http://creativecommons.org/ns#"
   xmlns:rdf="http://www.w3.org/1999/02/22-rdf-syntax-ns#"
   xmlns:svg="http://www.w3.org/2000/svg"
   xmlns="http://www.w3.org/2000/svg"
   xmlns:sodipodi="http://sodipodi.sourceforge.net/DTD/sodipodi-0.dtd"
   xmlns:inkscape="http://www.inkscape.org/namespaces/inkscape"
   width="100mm"
   height="100mm"
   viewBox="0 0 100 100"
   version="1.1"
   id="svg8"
   sodipodi:docname="logo-neuland.svg"
   inkscape:version="0.92.4 (5da689c313, 2019-01-14)">
  <defs
     id="defs2" />
  <sodipodi:namedview
     id="base"
     pagecolor="#ffffff"
     bordercolor="#666666"
     borderopacity="1.0"
     inkscape:pageopacity="0.0"
     inkscape:pageshadow="2"
     inkscape:zoom="0.98994949"
     inkscape:cx="129.58265"
     inkscape:cy="243.79935"
     inkscape:document-units="mm"
     inkscape:current-layer="layer1"
     showgrid="false"
     inkscape:window-width="1920"
     inkscape:window-height="1052"
     inkscape:window-x="0"
     inkscape:window-y="28"
     inkscape:window-maximized="1" />
  <metadata
     id="metadata5">
    <rdf:RDF>
      <cc:Work
         rdf:about="">
        <dc:format>image/svg+xml</dc:format>
        <dc:type
           rdf:resource="http://purl.org/dc/dcmitype/StillImage" />
        <dc:title></dc:title>
      </cc:Work>
    </rdf:RDF>
  </metadata>
  <g
     inkscape:label="Layer 1"
     inkscape:groupmode="layer"
     id="layer1"
     transform="translate(0,-197)">
    <g
       id="g904"
       style="stroke:#010000;stroke-width:2.00031424;stroke-linecap:round;stroke-linejoin:round;stroke-miterlimit:4;stroke-dasharray:none;stroke-opacity:1"
       transform="matrix(1.0706725,0,0,1.0706725,-1.4432161,-26.744047)">
      <path
         inkscape:connector-curvature="0"
         id="path842"
         d="m 5.5751489,237.75223 c 0,0 2.5513378,-8.92968 7.5595231,-14.36309"
         style="fill:none;stroke:#010000;stroke-width:2.00031424;stroke-linecap:round;stroke-linejoin:round;stroke-miterlimit:4;stroke-dasharray:none;stroke-opacity:1" />
      <path
         inkscape:connector-curvature="0"
         id="path844"
         d="m 2.3623512,228.30283 12.6149548,0.28348 c 0,0 4.677456,3.1183 2.882069,5.76414 -1.795387,2.64583 -3.874161,6.99281 -3.874161,6.99281"
         style="fill:none;stroke:#010000;stroke-width:2.00031424;stroke-linecap:round;stroke-linejoin:round;stroke-miterlimit:4;stroke-dasharray:none;stroke-opacity:1" />
      <path
         inkscape:connector-curvature="0"
         id="path846"
         d="m 18.993303,226.31845 h 1.511905 l 0.519717,0.8977 1.039435,-0.99219 1.653646,-0.28348"
         style="fill:none;stroke:#010000;stroke-width:2.00031424;stroke-linecap:round;stroke-linejoin:round;stroke-miterlimit:4;stroke-dasharray:none;stroke-opacity:1" />
      <path
         inkscape:connector-curvature="0"
         id="path848"
         d="m 31.60826,229.95647 c -1.397376,-0.46427 -2.564834,-0.0663 -3.732517,0.33073 -1.846123,0.89481 -2.330042,2.19028 -3.260044,3.35454 -0.535396,0.99532 -0.405033,1.8575 -0.377976,2.74033 2.15925,-0.2276 4.442892,-0.11312 6.157941,-1.56227 0.778905,-1.00541 1.329606,-2.18198 1.637818,-3.54041 -0.106593,-0.8979 -0.260325,-1.18298 -0.425222,-1.32292 z"
         style="fill:none;stroke:#010000;stroke-width:2.00031424;stroke-linecap:round;stroke-linejoin:round;stroke-miterlimit:4;stroke-dasharray:none;stroke-opacity:1"
         sodipodi:nodetypes="ccccccc" />
      <path
         inkscape:connector-curvature="0"
         id="path850"
         d="m 24.237723,236.38207 -0.04725,2.59858 0.803199,1.46466 1.984376,0.37798 2.220609,-0.0945 2.504093,-0.8977"
         style="fill:none;stroke:#010000;stroke-width:2.00031424;stroke-linecap:round;stroke-linejoin:round;stroke-miterlimit:4;stroke-dasharray:none;stroke-opacity:1" />
      <path
         inkscape:connector-curvature="0"
         id="path852"
         d="m 34.584822,230.42894 -0.519718,5.33892 v 3.07105 l 0.850447,1.46466 2.362351,0.33073 1.700893,-0.8032 1.842632,-3.87426 1.464659,-2.92931 0.04725,-2.26786 -0.14174,8.22098 0.850445,2.45685"
         style="fill:none;stroke:#010000;stroke-width:2.00031424;stroke-linecap:round;stroke-linejoin:round;stroke-miterlimit:4;stroke-dasharray:none;stroke-opacity:1" />
      <path
         inkscape:connector-curvature="0"
         id="path854"
         d="m 46.065847,223.53088 c 0.866731,2.23224 0.75855,4.33166 0.661458,6.66183 -0.761566,2.72408 -0.954587,4.75841 -0.708705,7.51228 l 0.09449,2.26785"
         style="fill:none;stroke:#010000;stroke-width:2.00031424;stroke-linecap:round;stroke-linejoin:round;stroke-miterlimit:4;stroke-dasharray:none;stroke-opacity:1"
         sodipodi:nodetypes="cccc" />
      <path
         inkscape:connector-curvature="0"
         id="path856"
         d="m 58.255579,232.41332 -0.425222,-1.93713 c -0.349296,-0.69613 -0.935792,-1.33816 -1.889882,-1.84263 -0.484635,-0.14815 -0.962017,-0.24553 -1.41741,-0.18899 -1.485326,0.25465 -2.394857,0.93473 -3.399134,1.86758 -0.985157,0.87043 -1.18543,2.04726 -1.278321,3.2351 l -0.236236,2.78757 c 0.171271,1.50372 0.778276,1.86016 1.937129,2.69308 1.517768,0.58303 2.641306,0.26042 4.157736,-0.0945 l 1.511906,-1.51191 2.078868,-1.41741 0.708705,-0.7087 -0.04725,-2.4096 0.425225,5.00818 c 0,0 0.330729,2.83483 1.41741,3.59078"
         style="fill:none;stroke:#010000;stroke-width:2.00031424;stroke-linecap:round;stroke-linejoin:round;stroke-miterlimit:4;stroke-dasharray:none;stroke-opacity:1"
         sodipodi:nodetypes="ccccccccccccccc" />
      <path
         inkscape:connector-curvature="0"
         id="path858"
         d="m 64.161458,230.94866 2.645833,10.11086 3.96875,-7.18154 c 0,0 1.039434,-2.17337 3.77976,-2.45685 2.74033,-0.28348 2.584866,10.50464 2.584866,10.50464"
         style="fill:none;stroke:#010000;stroke-width:2.00031424;stroke-linecap:round;stroke-linejoin:round;stroke-miterlimit:4;stroke-dasharray:none;stroke-opacity:1" />
      <path
         inkscape:connector-curvature="0"
         id="path860"
         d="m 89.53529,234.39211 0.133636,-2.60587 c 0,0 -3.073599,-2.87315 -6.815373,-0.33409 -3.741775,2.53906 -3.80859,7.14946 -3.608139,8.61944 0.200451,1.46998 1.403165,2.27179 2.271792,1.87089 0.868624,-0.40091 7.817633,-3.40769 7.817633,-3.40769 0,0 2.405425,-1.67043 2.605879,-3.27405 0.20045,-1.60362 1.804069,-12.02713 1.804069,-12.02713"
         style="fill:none;stroke:#010000;stroke-width:2.00031424;stroke-linecap:round;stroke-linejoin:round;stroke-miterlimit:4;stroke-dasharray:none;stroke-opacity:1" />
      <path
         inkscape:connector-curvature="0"
         id="path862"
         d="m 91.974126,235.19392 -0.116932,6.23072"
         style="fill:none;stroke:#010000;stroke-width:2.00031424;stroke-linecap:round;stroke-linejoin:round;stroke-miterlimit:4;stroke-dasharray:none;stroke-opacity:1" />
    </g>
    <g
       id="g956"
       transform="translate(-2.4240681)">
      <path
         sodipodi:nodetypes="cccsccsscc"
         inkscape:connector-curvature="0"
         id="path883"
         d="m 15.88992,279.32149 c 0,0 8.348593,-7.59816 11.725551,-5.53447 3.376958,2.06371 8.817616,6.0035 12.194574,5.81588 3.376958,-0.1876 4.782439,-0.55912 7.621782,-2.74258 2.863449,-2.20199 0,0 4.197573,-2.88568 4.315005,-1.9699 3.939788,-1.03186 6.191092,-0.37522 2.251307,0.65663 5.440655,0.56282 10.318487,3.75217 4.877829,3.18935 5.253046,3.65838 6.56631,3.47077 1.31326,-0.18761 2.291134,0.60526 7.731788,-1.83365 5.373841,-2.53915 6.079325,-5.24403 6.079325,-5.24403"
         style="fill:none;stroke:#00a6e0;stroke-width:3;stroke-linecap:butt;stroke-linejoin:miter;stroke-miterlimit:4;stroke-dasharray:none;stroke-opacity:1" />
      <path
         sodipodi:nodetypes="ccccccccsc"
         inkscape:connector-curvature="0"
         id="path885"
         d="m 25.993205,272.66288 c 0,0 7.760678,-6.93401 20.51808,-6.18357 12.757402,0.75042 17.159707,1.07557 17.159707,1.07557 3.829059,-0.90096 11.250516,4.092 15.056423,11.5956 -2.157503,5.53447 -10.474726,-2.06229 -10.474726,-2.06229 -6.023002,-4.34781 -9.545898,-3.65169 -13.011133,-4.41524 0,0 -1.234939,0.46257 -3.612156,1.30169 -1.876092,1.40706 -4.622104,3.18422 -6.779607,4.59128 -2.939554,1.36555 -5.993819,1.14025 -10.079465,-0.74787 -4.094705,-1.89229 -5.177598,-3.60068 -8.777123,-5.15517 z"
         style="fill:#ff7f28;fill-opacity:1;stroke:none;stroke-width:0.37203148;stroke-linecap:butt;stroke-linejoin:miter;stroke-miterlimit:4;stroke-dasharray:none;stroke-opacity:1" />
      <path
         sodipodi:nodetypes="cccccc"
         inkscape:connector-curvature="0"
         id="path887"
         d="m 49.700637,246.59277 -1.172556,3.51766 -3.517666,1.12565 c 0,0 6.402323,8.41982 5.604986,15.50205 l 7.294157,0.44023 c 0,0 2.109564,-10.73614 -8.208921,-20.58559 z"
         style="fill:#890016;fill-opacity:1;stroke:none;stroke-width:0.37203148;stroke-linecap:butt;stroke-linejoin:miter;stroke-miterlimit:4;stroke-dasharray:none;stroke-opacity:1" />
      <path
         inkscape:connector-curvature="0"
         id="path891"
         d="m 48.528081,250.11043 -3.517666,1.12565 c 0,0 -4.788485,1.82617 -7.441676,3.94873 -2.653189,2.12255 -2.520527,0.92861 -2.520527,0.92861 0,0 -3.913457,2.78585 -3.714466,3.3165 0.198987,0.53063 -1.658244,1.26026 -1.790904,0.33164 -0.132668,-0.92862 -1.061278,-5.83702 5.50537,-9.88312 6.566643,-4.04612 7.495259,-2.38788 7.495259,-2.38788 0,0 -10.347442,-3.1175 -12.403661,0.99495 0,0 -2.785849,0 -0.729627,-3.1175 2.056222,-3.1175 7.826909,-2.85217 7.826909,-2.85217 0,0 4.709412,-0.8623 7.163612,0.9286 0,0 -0.729628,-2.18888 0.464308,-4.0461 1.193935,-1.85724 7.42893,-5.37271 8.092228,-4.84208 0.663297,0.53064 0.596968,2.38788 0.596968,2.38788 0,0 -2.056222,0.33164 -1.392925,1.06127 0,0 4.444093,-1.92357 10.281109,0.92862 0,0 1.459255,3.05116 -0.06633,3.51547 -1.525584,0.46431 -1.260264,-0.86228 -2.122552,-0.53064 -0.862286,0.33165 -0.994945,0.53064 -0.994945,0.53064 l -4.444093,0.0663 c 0,0 -6.247887,3.04647 -5.113835,4.07693 z"
         style="fill:#00b800;fill-opacity:1;stroke:none;stroke-width:0.37203148;stroke-linecap:butt;stroke-linejoin:miter;stroke-miterlimit:4;stroke-dasharray:none;stroke-opacity:1" />
    </g>
    <path
       style="fill:#fffffd;fill-opacity:1;stroke:none;stroke-width:0.26458332px;stroke-linecap:butt;stroke-linejoin:miter;stroke-opacity:1"
       d="m 40.821427,249.28051 c 0,0 -6.472841,-0.94494 -10.536084,5.38616 3.380834,-2.12933 6.812838,-4.12842 10.536084,-5.38616 z"
       id="path958"
       inkscape:connector-curvature="0"
       sodipodi:nodetypes="ccc" />
    <path
       style="fill:#fffffd;fill-opacity:1;stroke:none;stroke-width:0.26458332px;stroke-linecap:butt;stroke-linejoin:miter;stroke-opacity:1"
       d="m 46.070586,239.16956 c -1.278626,0.99785 -1.579873,2.30667 -1.904297,3.60813 0,0 -0.868627,-3.04018 1.904297,-3.60813 z"
       id="path969"
       inkscape:connector-curvature="0"
       sodipodi:nodetypes="ccc" />
    <path
       style="fill:#fffffd;stroke:none;stroke-width:0.26458332px;stroke-linecap:butt;stroke-linejoin:miter;stroke-opacity:1;fill-opacity:1"
       d="m 47.106255,243.61291 c 3.349157,-2.60664 3.44,-2.35653 7.483546,-2.67269 0,0 -2.321904,-1.45328 -3.975634,-0.96886 -1.653731,0.48443 -2.906557,1.98782 -2.990078,2.18827 -0.08352,0.20046 -0.65147,1.28624 -0.517834,1.45328 z"
       id="path992"
       inkscape:connector-curvature="0"
       sodipodi:nodetypes="ccccc" />
  </g>
</svg>
